<?xml version="1.0" encoding="utf-8"?>
<!-- Generator: Adobe Adobe Illustrator 24.2.0, SVG Export Plug-In . SVG Version: 6.00 Build 0)  -->
<svg version="1.1" xmlns="http://www.w3.org/2000/svg" xmlns:xlink="http://www.w3.org/1999/xlink" x="0px" y="0px" width="1920px"
	 height="1080px" viewBox="0 0 1920 1080" style="enable-background:new 0 0 1920 1080;" xml:space="preserve">
<style type="text/css">
	.st0{fill:none;stroke:#FFFFFF;stroke-width:11;stroke-miterlimit:10;}
	.st1{fill:#FFFFFF;stroke:#FFFFFF;stroke-width:4;stroke-linejoin:round;stroke-miterlimit:10;}
	.st2{fill:#FFFFFF;stroke:#FFFFFF;stroke-width:12;stroke-linecap:round;stroke-linejoin:round;stroke-miterlimit:10;}
	.st3{fill:none;stroke:#FFFFFF;stroke-width:10;stroke-linejoin:round;stroke-miterlimit:10;}
</style>
<g id="Layer_2">
	<path class="st0" d="M963.44,500.37c0,0-106.78-9.64-82.68,125.97c8.27,46.53,63.33,48.36,86.19,48.36c22.86,0,70.8-6.94,78-43.68
		C1072.57,490.1,963.44,500.37,963.44,500.37z"/>
	<circle class="st0" cx="1096.97" cy="562.2" r="39.5"/>
	<circle class="st0" cx="829.97" cy="562.2" r="39.5"/>
</g>
<g id="Layer_3">
	<polygon class="st1" points="958.37,496.08 961.49,313.56 968.51,497.25 	"/>
</g>
<g id="Layer_4">
	<line class="st2" x1="698.18" y1="474.46" x2="922.34" y2="507.67"/>
	<line class="st2" x1="1225.56" y1="473.12" x2="1001.56" y2="506.34"/>
</g>
<g id="Layer_5">
	<polyline class="st3" points="1040.08,642.84 1743.32,611.55 1014.56,665.48 	"/>
	<polyline class="st3" points="886.7,642.84 184.2,611.55 912.2,665.48 	"/>
</g>
<g id="Layer_6">
</g>
</svg>
