<?xml version="1.0" encoding="utf-8"?>
<!-- Generator: Adobe Adobe Illustrator 24.2.0, SVG Export Plug-In . SVG Version: 6.00 Build 0)  -->
<svg version="1.1" id="Layer_1" xmlns="http://www.w3.org/2000/svg" xmlns:xlink="http://www.w3.org/1999/xlink" x="0px" y="0px"
	 width="2000px" height="2000px" viewBox="0 0 2000 2000" style="enable-background:new 0 0 2000 2000;" xml:space="preserve">
<style type="text/css">
	.st0{fill:none;stroke:#000000;stroke-width:13;stroke-miterlimit:10;}
</style>
<path class="st0" d="M566.87,566.95c0,0-114.51-87.41-244.11,26.35c-129.32,113.51-77.01,252.87-77.01,252.87
	s-128.4,74.93-95.8,195.04c36.58,134.77,196.25,151.13,196.25,151.13s-54.01,233.1,99.01,309.41
	c155.92,77.75,300.74-43.32,300.74-43.32s85.93,123.76,301.98,123.76c217.22,0,322.75-150.52,322.75-150.52
	s111.55,117.4,262.74,13.3c193.23-133.05,72.33-249.32,72.33-249.32s149.59-50.9,149.59-237.24
	c0-217.99-155.08-187.07-155.08-187.07s73.46-137.01-84.72-237.71c-145.91-92.89-278.55,60.93-278.55,60.93
	s-3.04-159.15-193.92-175.63C976.06,404.5,939.81,535.06,939.81,535.06s-55.8-111.99-199.76-104.71
	C607.04,437.07,566.87,566.95,566.87,566.95z"/>
</svg>
