<?xml version="1.0" encoding="utf-8"?>
<!-- Generator: Adobe Adobe Illustrator 24.2.0, SVG Export Plug-In . SVG Version: 6.00 Build 0)  -->
<svg version="1.1" id="Layer_1" xmlns="http://www.w3.org/2000/svg" xmlns:xlink="http://www.w3.org/1999/xlink" x="0px" y="0px"
	 width="2000px" height="2000px" viewBox="0 0 2000 2000" style="enable-background:new 0 0 2000 2000;" xml:space="preserve">
<style type="text/css">
	.st0{fill:none;stroke:#000000;stroke-width:49;stroke-miterlimit:10;}
</style>
<path class="st0" d="M1000,400.88c0,52.09,197.95,25.16,199.35,77.23c2.78,103.02-382.85,50.82-382.45,153.88
	c0.4,103.13,384.84,47.76,383.94,150.89c-0.9,103.64-374.7,42.18-388.43,144.91c-13.75,102.91,375.36,47.71,386.93,150.89
	c11.4,101.67-370.09,36.3-385.44,137.44c-15.58,102.65,373.02,55.1,383.94,158.36c10.79,101.99-369.1,39.18-385.44,140.43
	c-7.94,49.19,202.26,50.84,202.26,100.67"/>
</svg>
